<?xml version="1.0" encoding="UTF-8"?>
<svg version="1.1" xmlns="http://www.w3.org/2000/svg" width="361" height="248">
<path d="M0 0 C119.13 0 238.26 0 361 0 C361 81.84 361 163.68 361 248 C241.87 248 122.74 248 0 248 C0 166.16 0 84.32 0 0 Z " fill="#F1F1F1" transform="translate(0,0)"/>
<path d="M0 0 C3.27709517 2.49283308 5.935349 4.92256855 8.4375 8.1875 C12.21424467 13.02488644 16.08823627 17.77110769 20 22.5 C33.53553806 38.90291846 33.53553806 38.90291846 36.63671875 43.34375 C37.14847656 44.0759375 37.66023438 44.808125 38.1875 45.5625 C38.82751953 46.52349609 38.82751953 46.52349609 39.48046875 47.50390625 C40.98217759 49.14008081 40.98217759 49.14008081 43.27734375 50.1171875 C46.48502982 49.97912354 46.8817227 49.50766511 49.0859375 47.31640625 C50.19896625 46.07991267 51.29453455 44.82754694 52.375 43.5625 C52.9522583 42.9130542 53.5295166 42.2636084 54.12426758 41.59448242 C55.76510576 39.74260992 57.38478946 37.87421862 59 36 C59.67675781 35.23171875 60.35351562 34.4634375 61.05078125 33.671875 C62.11788705 32.45960207 63.17938399 31.24236174 64.234375 30.01953125 C68.08421148 25.61606785 72.05498155 21.3180886 76 17 C77.9134864 19.8702296 78.31668484 20.89396252 78.74609375 24.140625 C78.85961182 24.95635986 78.97312988 25.77209473 79.09008789 26.61254883 C79.20473389 27.48290771 79.31937988 28.3532666 79.4375 29.25 C80.46828622 36.62022063 81.73139542 43.85640739 83.26147461 51.13964844 C84.01479583 55.07733937 84.57662718 58.97344231 85.08984375 62.94921875 C85.17874878 63.63222046 85.26765381 64.31522217 85.35925293 65.0189209 C85.57502653 66.67899726 85.78783093 68.33945911 86 70 C86.65510559 69.85997055 87.31021118 69.7199411 87.98516846 69.57566833 C94.79600334 68.12164873 101.60935805 66.67992723 108.42431641 65.24536133 C110.96828028 64.70815798 113.51158194 64.16780873 116.05419922 63.62426758 C119.70631628 62.84411382 123.36065542 62.07525702 127.015625 61.30859375 C128.15429016 61.06282089 129.29295532 60.81704803 130.46612549 60.56382751 C131.52692322 60.34352371 132.58772095 60.12321991 133.68066406 59.89624023 C135.07964935 59.59978859 135.07964935 59.59978859 136.50689697 59.29734802 C141.9110033 58.65280974 145.72887352 61.40220302 150.25 64.0625 C150.8996875 64.43955078 151.549375 64.81660156 152.21875 65.20507812 C153.81505091 66.13234115 155.40787529 67.06558456 157 68 C157.0515625 67.34990967 157.103125 66.69981934 157.15625 66.0300293 C157.8047272 61.04347909 158.47676272 57.80123035 162.5625 54.64453125 C164.02191942 53.67027018 165.50208083 52.72646273 167 51.8125 C168.45838362 50.86075414 169.91671642 49.90893039 171.375 48.95703125 C172.14183105 48.48249512 172.90866211 48.00795898 173.69873047 47.51904297 C176.01895008 46.0536656 176.01895008 46.0536656 178.02392578 44.28173828 C186.58888608 37.23832478 197.32774549 35.68079232 207.875 33.25 C209.84813379 32.77934126 211.82079549 32.30669876 213.79296875 31.83203125 C217.5451711 30.93150269 221.29986543 30.04308768 225.05761719 29.16601562 C230.01118911 28.00620312 234.93928574 26.76471766 239.85986328 25.47167969 C242 25 242 25 245 25 C243.35224657 28.74571272 240.95121204 31.8079092 238.4375 35 C237.52417499 36.17404017 236.61142543 37.3485282 235.69921875 38.5234375 C235.24208496 39.11092773 234.78495117 39.69841797 234.31396484 40.30371094 C229.05227994 47.09638776 223.97256332 54.02850439 218.88842773 60.9543457 C217.07425134 63.42151888 215.25244692 65.88291384 213.4296875 68.34375 C211.31806878 71.19659475 209.23843341 74.06653903 207.1953125 76.96875 C202.42548033 83.64596824 198.81449078 87.47565607 191 90 C187.96376016 91.21305011 184.952995 92.48642905 181.9375 93.75 C180.42643412 94.37138169 178.91476329 94.99129538 177.40234375 95.609375 C175.71818359 96.29773438 175.71818359 96.29773438 174 97 C175.5402957 101.13079302 177.51752097 104.95108085 179.625 108.8125 C182.6482413 114.41655705 185.58590659 120.05660126 188.4375 125.75 C188.95014404 126.76864136 188.95014404 126.76864136 189.47314453 127.80786133 C190.82262247 130.51470688 192.0420965 133.12628949 193 136 C178.63503471 134.62124278 164.41119045 132.66046133 150.15234375 130.45361328 C147.49562394 130.04411528 144.83776549 129.64276025 142.1796875 129.2421875 C141.38891815 129.11721893 140.5981488 128.99225037 139.78341675 128.86349487 C131.90284297 127.61033459 131.90284297 127.61033459 124 128 C121.80197108 130.45485476 120.70723903 132.11769028 119.3125 135 C118.4768852 136.56206817 117.639543 138.1232131 116.80078125 139.68359375 C116.35686035 140.53550293 115.91293945 141.38741211 115.45556641 142.26513672 C112.78538101 147.28214725 109.87812005 152.16280639 107 157.0625 C106.40219727 158.08303467 105.80439453 159.10356934 105.18847656 160.1550293 C104.0123438 162.16213941 102.83480778 164.168428 101.65576172 166.17382812 C100.60143167 167.97343364 99.55292616 169.7764735 98.51220703 171.58398438 C97.21335678 173.83783112 95.89179165 176.07651631 94.5625 178.3125 C94.19833984 178.95775635 93.83417969 179.6030127 93.45898438 180.26782227 C89.61544281 186.61261975 83.88902577 187.91765999 77.0625 189.6875 C75.62583984 190.06455078 75.62583984 190.06455078 74.16015625 190.44921875 C73.44730469 190.63097656 72.73445313 190.81273437 72 191 C72.77735135 182.38111685 74.41051939 173.93431861 76 165.4375 C76.41257361 163.22669624 76.82413554 161.01572399 77.23291016 158.80421448 C77.60336892 156.80058561 77.97735653 154.79761014 78.3515625 152.79467773 C79.02263591 148.86753393 79.53461647 144.95603442 80 141 C78.41540185 142.41525178 76.83237609 143.8322642 75.25 145.25 C74.36828125 146.03890625 73.4865625 146.8278125 72.578125 147.640625 C69.99559085 149.84586647 69.99559085 149.84586647 68.34375 152.28125 C64.40285641 155.17123863 59.98545649 154.4139439 55.25 154.25 C54.26644531 154.23195312 53.28289062 154.21390625 52.26953125 154.1953125 C49.84536217 154.14824126 47.42317941 154.08250742 45 154 C46.66086912 148.43335076 49.11071736 143.34213647 51.625 138.125 C52.04523438 137.24585938 52.46546875 136.36671875 52.8984375 135.4609375 C53.9291692 133.30577122 54.96309426 131.15220078 56 129 C55.01 128.67 54.02 128.34 53 128 C52.34 123.71 51.68 119.42 51 115 C49.39125 115.0309375 49.39125 115.0309375 47.75 115.0625 C41.03880191 114.9506467 41.03880191 114.9506467 38.296875 112.44140625 C37.78640625 111.82136719 37.2759375 111.20132813 36.75 110.5625 C35.96882813 109.63630859 35.96882813 109.63630859 35.171875 108.69140625 C34 107 34 107 34 105 C33.30962646 105.15670166 32.61925293 105.31340332 31.90795898 105.47485352 C28.75381648 106.1833257 25.59585033 106.87303962 22.4375 107.5625 C20.80844727 107.9327832 20.80844727 107.9327832 19.14648438 108.31054688 C13.37915128 109.55516891 8.76916151 110.3795821 3 109 C1.7934375 108.7215625 1.7934375 108.7215625 0.5625 108.4375 C0.046875 108.293125 -0.46875 108.14875 -1 108 C-0.32146235 101.4469994 1.54059054 95.35591245 3.4375 89.0625 C8.64807833 73.35012921 8.64807833 73.35012921 8.10546875 57.12109375 C6.6571412 50.8112607 5.90085624 44.41392527 5.0625 38 C3.77772667 28.37448303 2.36887785 18.81757918 0.515625 9.28515625 C0.01998283 6.12731488 -0.0974034 3.18996143 0 0 Z " fill="#C04A17" transform="translate(80,47)"/>
<path d="M0 0 C3.27709517 2.49283308 5.935349 4.92256855 8.4375 8.1875 C12.21424467 13.02488644 16.08823627 17.77110769 20 22.5 C33.53553806 38.90291846 33.53553806 38.90291846 36.63671875 43.34375 C37.14847656 44.0759375 37.66023438 44.808125 38.1875 45.5625 C38.82751953 46.52349609 38.82751953 46.52349609 39.48046875 47.50390625 C40.98217759 49.14008081 40.98217759 49.14008081 43.27734375 50.1171875 C46.48502982 49.97912354 46.8817227 49.50766511 49.0859375 47.31640625 C50.19896625 46.07991267 51.29453455 44.82754694 52.375 43.5625 C52.9522583 42.9130542 53.5295166 42.2636084 54.12426758 41.59448242 C55.76510576 39.74260992 57.38478946 37.87421862 59 36 C59.67675781 35.23171875 60.35351562 34.4634375 61.05078125 33.671875 C62.11788705 32.45960207 63.17938399 31.24236174 64.234375 30.01953125 C68.08421148 25.61606785 72.05498155 21.3180886 76 17 C77.9134864 19.8702296 78.31668484 20.89396252 78.74609375 24.140625 C78.85961182 24.95635986 78.97312988 25.77209473 79.09008789 26.61254883 C79.20473389 27.48290771 79.31937988 28.3532666 79.4375 29.25 C80.46828622 36.62022063 81.73139542 43.85640739 83.26147461 51.13964844 C84.01479583 55.07733937 84.57662718 58.97344231 85.08984375 62.94921875 C85.17874878 63.63222046 85.26765381 64.31522217 85.35925293 65.0189209 C85.57502653 66.67899726 85.78783093 68.33945911 86 70 C87.14476807 69.75765625 88.28953613 69.5153125 89.46899414 69.265625 C93.73721762 68.36400223 98.00733772 67.47165811 102.27807617 66.58203125 C104.12235255 66.19652008 105.96611293 65.8085314 107.80932617 65.41796875 C110.46660013 64.85537011 113.12563351 64.30185742 115.78515625 63.75 C116.60210464 63.57500977 117.41905304 63.40001953 118.26075745 63.21972656 C122.9438236 62.25844669 127.21924214 61.82117563 132 62 C129.45749855 64.54250145 127.11355436 65.23565746 123.7421875 66.49609375 C122.80936447 66.84741112 122.80936447 66.84741112 121.85769653 67.20582581 C119.86533956 67.95483301 117.87025794 68.69625975 115.875 69.4375 C114.55450062 69.93244441 113.23418595 70.4278819 111.9140625 70.92382812 C110.95136696 71.2838089 110.95136696 71.2838089 109.96922302 71.65106201 C108.08820179 72.35848946 106.21213062 73.07903432 104.33618164 73.79980469 C101 75 101 75 98.38061523 75.59863281 C95.9464798 76.06414762 95.9464798 76.06414762 93 78 C91.33960864 81.83945033 90.8581806 85.7491223 90.3125 89.875 C90.12445801 91.0599707 89.93641602 92.24494141 89.74267578 93.46582031 C89.34256989 95.99353643 88.95727908 98.52363404 88.58544922 101.05566406 C87.7986367 106.35664112 86.92113565 111.63902839 86.02416992 116.92236328 C85.5994624 119.42652443 85.18638558 121.93269297 84.78637695 124.44091797 C83.32794947 133.26325951 82.19490974 139.7134365 75.0625 145.6875 C71.42739667 148.70570511 71.42739667 148.70570511 68.35546875 152.25390625 C64.41203247 155.17715006 60.00518244 154.41462682 55.25 154.25 C54.26644531 154.23195312 53.28289062 154.21390625 52.26953125 154.1953125 C49.84536217 154.14824126 47.42317941 154.08250742 45 154 C46.66086912 148.43335076 49.11071736 143.34213647 51.625 138.125 C52.04523438 137.24585938 52.46546875 136.36671875 52.8984375 135.4609375 C53.9291692 133.30577122 54.96309426 131.15220078 56 129 C55.01 128.67 54.02 128.34 53 128 C52.34 123.71 51.68 119.42 51 115 C49.39125 115.0309375 49.39125 115.0309375 47.75 115.0625 C41.03880191 114.9506467 41.03880191 114.9506467 38.296875 112.44140625 C37.78640625 111.82136719 37.2759375 111.20132813 36.75 110.5625 C35.96882813 109.63630859 35.96882813 109.63630859 35.171875 108.69140625 C34 107 34 107 34 105 C33.30962646 105.15670166 32.61925293 105.31340332 31.90795898 105.47485352 C28.75381648 106.1833257 25.59585033 106.87303962 22.4375 107.5625 C20.80844727 107.9327832 20.80844727 107.9327832 19.14648438 108.31054688 C13.37915128 109.55516891 8.76916151 110.3795821 3 109 C1.7934375 108.7215625 1.7934375 108.7215625 0.5625 108.4375 C0.046875 108.293125 -0.46875 108.14875 -1 108 C-0.32146235 101.4469994 1.54059054 95.35591245 3.4375 89.0625 C8.64807833 73.35012921 8.64807833 73.35012921 8.10546875 57.12109375 C6.6571412 50.8112607 5.90085624 44.41392527 5.0625 38 C3.77772667 28.37448303 2.36887785 18.81757918 0.515625 9.28515625 C0.01998283 6.12731488 -0.0974034 3.18996143 0 0 Z " fill="#B84717" transform="translate(80,47)"/>
<path d="M0 0 C0.6496875 0.37705078 1.299375 0.75410156 1.96875 1.14257812 C3.56505091 2.06984115 5.15787529 3.00308456 6.75 3.9375 C5.79774481 8.32631156 3.69227004 11.93487487 1.5 15.8125 C1.05962402 16.59842529 0.61924805 17.38435059 0.16552734 18.1940918 C-3.88280243 25.37591026 -8.0797677 32.46831473 -12.29223633 39.5546875 C-15.98537728 45.77335251 -19.61249438 52.02523611 -23.1875 58.3125 C-29.25361016 68.9766248 -35.4267088 79.57668015 -41.62646484 90.16357422 C-43.12469799 92.72341257 -44.61946117 95.28524107 -46.11328125 97.84765625 C-48.12283728 101.29143835 -50.15156116 104.72319923 -52.19335938 108.14794922 C-53.20434699 109.86018102 -54.18878489 111.58800596 -55.171875 113.31640625 C-58.51083887 118.9823029 -60.61796115 122.16895631 -67.25 123.9375 C-68.20261719 124.20949219 -69.15523437 124.48148438 -70.13671875 124.76171875 C-72.83292875 125.52466678 -75.53493554 126.24523221 -78.25 126.9375 C-77.40816471 117.59312823 -75.56290421 108.43195095 -73.83398438 99.22119141 C-73.4283621 97.05418807 -73.02559719 94.88668771 -72.625 92.71875 C-72.49552979 92.01975586 -72.36605957 91.32076172 -72.23266602 90.60058594 C-71.6160032 87.20466093 -71.09315901 83.84595455 -70.8125 80.40625 C-70.43219871 76.33518756 -69.41586507 72.46793332 -68.3828125 68.5234375 C-66.06024301 59.62049541 -64.5616975 50.64387056 -63.125 41.5625 C-62.87176778 39.9855687 -62.61786334 38.40874519 -62.36328125 36.83203125 C-62.23934494 36.06442978 -62.11540863 35.29682831 -61.98771667 34.50596619 C-61.62799476 32.29304607 -61.26268164 30.08111983 -60.89575195 27.86938477 C-60.50416989 25.48510153 -60.12839312 23.09805094 -59.78198242 20.70678711 C-58.77360366 14.43148568 -58.77360366 14.43148568 -56.31640625 12.11328125 C-55.49011719 11.82839844 -54.66382813 11.54351562 -53.8125 11.25 C-52.83796875 10.88777344 -51.8634375 10.52554688 -50.859375 10.15234375 C-49.66828125 9.75144531 -48.4771875 9.35054687 -47.25 8.9375 C-45.69074855 8.36073953 -44.13358756 7.77830822 -42.578125 7.19140625 C-38.56755436 5.68367587 -34.54432114 4.21514579 -30.51416016 2.76074219 C-27.08260613 1.51303891 -23.6664298 0.2259821 -20.25 -1.0625 C-20.745 -2.0525 -20.745 -2.0525 -21.25 -3.0625 C-19.66913952 -3.42754603 -18.08516093 -3.77910506 -16.5 -4.125 C-15.61828125 -4.32222656 -14.7365625 -4.51945312 -13.828125 -4.72265625 C-8.42328445 -5.4351125 -4.52425206 -2.66213612 0 0 Z " fill="#D55117" transform="translate(230.25,111.0625)"/>
<path d="M0 0 C-2.54250145 2.54250145 -4.88644564 3.23565746 -8.2578125 4.49609375 C-8.87969452 4.73030533 -9.50157654 4.96451691 -10.14230347 5.20582581 C-12.13466044 5.95483301 -14.12974206 6.69625975 -16.125 7.4375 C-17.44549938 7.93244441 -18.76581405 8.4278819 -20.0859375 8.92382812 C-20.72773453 9.16381531 -21.36953156 9.40380249 -22.03077698 9.65106201 C-23.91179821 10.35848946 -25.78786938 11.07903432 -27.66381836 11.79980469 C-31 13 -31 13 -33.61938477 13.59863281 C-36.0535202 14.06414762 -36.0535202 14.06414762 -39 16 C-40.66039136 19.83945033 -41.1418194 23.7491223 -41.6875 27.875 C-41.96956299 29.65245605 -41.96956299 29.65245605 -42.25732422 31.46582031 C-42.65743011 33.99353643 -43.04272092 36.52363404 -43.41455078 39.05566406 C-44.2013633 44.35664112 -45.07886435 49.63902839 -45.97583008 54.92236328 C-46.4005376 57.42652443 -46.81361442 59.93269297 -47.21362305 62.44091797 C-48.67205053 71.26325951 -49.80509026 77.7134365 -56.9375 83.6875 C-60.57260333 86.70570511 -60.57260333 86.70570511 -63.64453125 90.25390625 C-67.58796753 93.17715006 -71.99481756 92.41462682 -76.75 92.25 C-77.73355469 92.23195313 -78.71710938 92.21390625 -79.73046875 92.1953125 C-82.15463783 92.14824126 -84.57682059 92.08250742 -87 92 C-85.33913088 86.43335076 -82.88928264 81.34213647 -80.375 76.125 C-79.95476562 75.24585938 -79.53453125 74.36671875 -79.1015625 73.4609375 C-78.0708308 71.30577122 -77.03690574 69.15220078 -76 67 C-76.99 66.67 -77.98 66.34 -79 66 C-79.66 61.71 -80.32 57.42 -81 53 C-82.11375 53.020625 -83.2275 53.04125 -84.375 53.0625 C-88 53 -88 53 -90 52 C-90.1352403 50.39815374 -90.23210847 48.79303374 -90.3125 47.1875 C-90.37050781 46.29417969 -90.42851563 45.40085938 -90.48828125 44.48046875 C-90 42 -90 42 -87.91992188 40.45458984 C-84.55655995 38.77909567 -81.47083103 38.01693691 -77.79296875 37.24609375 C-77.10874344 37.09970963 -76.42451813 36.9533255 -75.71955872 36.80250549 C-73.54393443 36.33883262 -71.36593368 35.88776918 -69.1875 35.4375 C-67.02042398 34.98095513 -64.85391543 34.52181054 -62.68757629 34.06178284 C-60.71474331 33.64422229 -58.74058517 33.23293706 -56.76635742 32.82202148 C-52.81959273 31.96062544 -48.91414798 30.9979898 -45 30 C-43.85542843 24.92546589 -44.19997981 20.69144304 -44.9375 15.625 C-45.03740234 14.88894531 -45.13730469 14.15289062 -45.24023438 13.39453125 C-45.48558965 11.59525923 -45.74169537 9.79745869 -46 8 C-40.57581895 6.85171817 -35.14980384 5.71269937 -29.72192383 4.58203125 C-27.87764745 4.19652008 -26.03388707 3.8085314 -24.19067383 3.41796875 C-21.53339987 2.85537011 -18.87436649 2.30185742 -16.21484375 1.75 C-15.39789536 1.57500977 -14.58094696 1.40001953 -13.73924255 1.21972656 C-9.0561764 0.25844669 -4.78075786 -0.17882437 0 0 Z " fill="#AE4317" transform="translate(212,109)"/>
<path d="M0 0 C5.2745509 1.60213183 9.08201688 4.98627362 13.3125 8.375 C14.91964518 9.64440462 16.52773759 10.91261081 18.13671875 12.1796875 C18.9467334 12.81874023 19.75674805 13.45779297 20.59130859 14.11621094 C24.23073255 16.96253116 27.92215727 19.73694931 31.625 22.5 C32.25059814 22.96712402 32.87619629 23.43424805 33.52075195 23.91552734 C34.72342057 24.8126774 35.9264531 25.70933987 37.12988281 26.60546875 C40.42544288 29.06294122 43.71240818 31.53188325 47 34 C46.505 34.99 46.505 34.99 46 36 C43.58902526 36.72496777 41.23373724 37.32811746 38.78125 37.875 C38.04934448 38.04499512 37.31743896 38.21499023 36.56335449 38.39013672 C34.21063086 38.93460169 31.85543125 39.46738412 29.5 40 C27.94253396 40.35861853 26.3852399 40.71798488 24.828125 41.078125 C18.71645388 42.48740905 12.60207971 43.87529792 6.46875 45.1875 C3.19037006 45.63389378 3.19037006 45.63389378 2 47 C1.76712992 48.68183948 1.58735834 50.3712416 1.4375 52.0625 C1.35371094 52.98160156 1.26992187 53.90070313 1.18359375 54.84765625 C1.09271484 55.91306641 1.09271484 55.91306641 1 57 C-1 57 -1 57 -2.5078125 55.5390625 C-3.04148438 54.90742188 -3.57515625 54.27578125 -4.125 53.625 C-4.66382812 52.99851563 -5.20265625 52.37203125 -5.7578125 51.7265625 C-7 50 -7 50 -7 48 C-8.05127075 48.22719727 -8.05127075 48.22719727 -9.1237793 48.45898438 C-12.31057711 49.14460079 -15.49899406 49.82237381 -18.6875 50.5 C-19.79029297 50.73847656 -20.89308594 50.97695312 -22.02929688 51.22265625 C-23.09599609 51.44824219 -24.16269531 51.67382812 -25.26171875 51.90625 C-26.24100342 52.11572266 -27.22028809 52.32519531 -28.22924805 52.54101562 C-30.87955633 52.9800481 -33.31993732 53.08555667 -36 53 C-35.319375 52.4225 -34.63875 51.845 -33.9375 51.25 C-30.4870495 47.7995495 -28.38258675 43.63276625 -25.99609375 39.4140625 C-23.91081302 35.84745711 -21.6857468 32.42237349 -19.375 29 C-14.5614092 21.86959632 -9.86847009 14.66540512 -5.20263672 7.4375 C-4.67041504 6.61507812 -4.13819336 5.79265625 -3.58984375 4.9453125 C-3.11409912 4.20812988 -2.63835449 3.47094727 -2.14819336 2.71142578 C-1 1 -1 1 0 0 Z " fill="#D55116" transform="translate(121,104)"/>
<path d="M0 0 C3.11723531 1.55861765 3.93247303 4.65388623 5.375 7.6875 C8.73462819 14.58345381 12.30823921 21.33886397 16 28.0625 C16.51054932 28.99650635 17.02109863 29.9305127 17.54711914 30.89282227 C19.87108674 35.13986841 22.20883436 39.37791712 24.58203125 43.59765625 C25.32564726 44.94003414 26.06914598 46.28247701 26.8125 47.625 C27.45832031 48.77226563 28.10414062 49.91953125 28.76953125 51.1015625 C30.15563489 54.36660663 30.15154056 54.80048883 29 58 C27.89608231 60.08511857 26.73258717 62.1390167 25.53515625 64.171875 C25.01120522 65.0649234 25.01120522 65.0649234 24.47666931 65.97601318 C23.34357769 67.90364914 22.20312882 69.82681621 21.0625 71.75 C20.28552936 73.06949784 19.50883717 74.38915968 18.73242188 75.70898438 C14.22858295 83.34542026 9.67264081 90.94578385 4.78149414 98.34277344 C2.70963765 101.54048813 1.45397221 104.19798277 1 108 C0.34 108 -0.32 108 -1 108 C-0.32146235 101.4469994 1.54059054 95.35591245 3.4375 89.0625 C8.64807833 73.35012921 8.64807833 73.35012921 8.10546875 57.12109375 C6.6571412 50.8112607 5.90085624 44.41392527 5.0625 38 C3.77772667 28.37448303 2.36887785 18.81757918 0.515625 9.28515625 C0.01998283 6.12731488 -0.0974034 3.18996143 0 0 Z " fill="#C64A14" transform="translate(80,47)"/>
<path d="M0 0 C3.74494772 3.65643077 7.22834646 7.45688009 10.625 11.4375 C11.14570068 12.04658203 11.66640137 12.65566406 12.20288086 13.28320312 C18.72145212 20.96069725 24.88600019 28.91466756 30.9921875 36.921875 C31.48517334 37.56253906 31.97815918 38.20320313 32.48608398 38.86328125 C33.42974707 40.0899639 34.36713456 41.32150886 35.29711914 42.55859375 C37.58239502 45.52103637 39.42809048 47.70715108 43 49 C42.67 50.65 42.34 52.3 42 54 C41.01 54 40.02 54 39 54 C38.78988281 54.63808594 38.57976562 55.27617188 38.36328125 55.93359375 C36.42856734 60.28531415 33.81322297 64.09901446 31.1875 68.0625 C30.01691595 69.84764895 28.84634338 71.63280543 27.67578125 73.41796875 C26.45064341 75.27872654 25.22538191 77.13940293 24 79 C21.61994457 82.6217133 19.24614508 86.24744894 16.875 89.875 C16.33125732 90.70008057 15.78751465 91.52516113 15.22729492 92.37524414 C12.53688743 96.49000998 10.17453357 100.58340077 8 105 C7.01 105.99 7.01 105.99 6 107 C2.375 106.625 2.375 106.625 -1 106 C-1.33 105.01 -1.66 104.02 -2 103 C-0.69542427 100.41223502 0.66527018 98.01875551 2.1875 95.5625 C2.63585205 94.82112793 3.0842041 94.07975586 3.54614258 93.31591797 C4.51510085 91.71456767 5.48817057 90.11569961 6.46484375 88.51904297 C8.02388845 85.96080136 9.56169677 83.39089242 11.09375 80.81640625 C12.12487187 79.08586115 13.15612111 77.35539193 14.1875 75.625 C14.69265137 74.77744141 15.19780273 73.92988281 15.71826172 73.05664062 C17.86315956 69.47830272 20.01552308 65.92222268 22.3515625 62.46484375 C22.99867187 61.50707031 23.64578125 60.54929688 24.3125 59.5625 C25.14201172 58.38880859 25.14201172 58.38880859 25.98828125 57.19140625 C27.32740467 54.2908339 26.8413459 53.06421846 26 50 C25.06640677 47.99892345 24.06084349 46.03072741 23.0078125 44.08984375 C22.3897876 42.94370605 21.7717627 41.79756836 21.13500977 40.61669922 C20.46510625 39.39024499 19.79510103 38.16384632 19.125 36.9375 C18.44597239 35.68275776 17.76750943 34.42770979 17.08959961 33.17236328 C13.94359807 27.35684417 10.76353341 21.56060112 7.55859375 15.77734375 C7.0486084 14.85638916 6.53862305 13.93543457 6.01318359 12.98657227 C5.06377537 11.27741378 4.10984462 9.57075774 3.15087891 7.86694336 C2.52125244 6.73784546 2.52125244 6.73784546 1.87890625 5.5859375 C1.33085327 4.61213135 1.33085327 4.61213135 0.77172852 3.61865234 C0 2 0 2 0 0 Z " fill="#A34018" transform="translate(82,49)"/>
<path d="M0 0 C0.33 0.66 0.66 1.32 1 2 C-0.28833008 4.63525391 -0.28833008 4.63525391 -2.26953125 7.9765625 C-2.62166183 8.574758 -2.97379242 9.17295349 -3.33659363 9.78927612 C-4.48746731 11.73923066 -5.64986704 13.6820381 -6.8125 15.625 C-7.59888298 16.95343542 -8.38469029 18.28221179 -9.16992188 19.61132812 C-13.71081701 27.27570057 -18.30386896 34.90949993 -23.21801758 42.34228516 C-25.29024489 45.54006979 -26.54599796 48.19773288 -27 52 C-27.66 52 -28.32 52 -29 52 C-28.32184944 45.51174872 -26.50121256 39.48336733 -24.625 33.25 C-24.01205438 31.19299607 -23.4000699 29.13570549 -22.7890625 27.078125 C-22.48556885 26.07346191 -22.1820752 25.06879883 -21.86938477 24.03369141 C-21.28588598 21.99759033 -20.75290201 19.94638671 -20.26928711 17.88427734 C-20.03733643 16.90410645 -19.80538574 15.92393555 -19.56640625 14.9140625 C-19.27938843 13.59849365 -19.27938843 13.59849365 -18.98657227 12.25634766 C-17.02128973 7.76163317 -12.28699264 6.71100884 -8 5 C-6.43664747 4.09912752 -4.89233232 3.16389388 -3.375 2.1875 C-2.72273438 1.76855469 -2.07046875 1.34960938 -1.3984375 0.91796875 C-0.93695313 0.61503906 -0.47546875 0.31210938 0 0 Z " fill="#D4551D" transform="translate(108,103)"/>
<path d="M0 0 C-2.54250145 2.54250145 -4.88644564 3.23565746 -8.2578125 4.49609375 C-8.87969452 4.73030533 -9.50157654 4.96451691 -10.14230347 5.20582581 C-12.13466044 5.95483301 -14.12974206 6.69625975 -16.125 7.4375 C-17.44549938 7.93244441 -18.76581405 8.4278819 -20.0859375 8.92382812 C-20.72770935 9.16379013 -21.3694812 9.40375214 -22.03070068 9.65098572 C-23.91222883 10.35865059 -25.78869614 11.07972449 -27.66503906 11.80102539 C-31 13 -31 13 -33.60839844 13.58764648 C-36.04056116 14.04414725 -36.04056116 14.04414725 -39 16 C-40.70857003 19.95043518 -41.35118911 23.95071609 -42 28.1875 C-42.20238281 29.31865234 -42.40476563 30.44980469 -42.61328125 31.61523438 C-43.10788835 34.40623158 -43.56848964 37.19867284 -44 40 C-44.60328125 39.81566406 -45.2065625 39.63132813 -45.828125 39.44140625 C-48.73454765 38.85071244 -50.3697768 39.75795015 -53 41 C-51.77065985 37.31197956 -50.06140622 36.27643027 -47 34 C-47.495 32.515 -47.495 32.515 -48 31 C-47.01 30.67 -46.02 30.34 -45 30 C-43.85542843 24.92546589 -44.19997981 20.69144304 -44.9375 15.625 C-45.03740234 14.88894531 -45.13730469 14.15289062 -45.24023438 13.39453125 C-45.48558965 11.59525923 -45.74169537 9.79745869 -46 8 C-40.57581895 6.85171817 -35.14980384 5.71269937 -29.72192383 4.58203125 C-27.87764745 4.19652008 -26.03388707 3.8085314 -24.19067383 3.41796875 C-21.53339987 2.85537011 -18.87436649 2.30185742 -16.21484375 1.75 C-15.39789536 1.57500977 -14.58094696 1.40001953 -13.73924255 1.21972656 C-9.0561764 0.25844669 -4.78075786 -0.17882437 0 0 Z " fill="#9D401B" transform="translate(212,109)"/>
<path d="M0 0 C-4.08205522 2.1668654 -7.99139109 3.6938705 -12.4375 4.9375 C-21.22137479 7.60438749 -26.97894639 11.60134866 -33.82641602 17.55908203 C-36.22849587 19.63273575 -37.95328753 20.98442918 -41 22 C-41.33 20.68 -41.66 19.36 -42 18 C-38.70185406 15.28712004 -35.35825761 12.63794952 -32 10 C-31.01 9.16275391 -31.01 9.16275391 -30 8.30859375 C-22.96890527 2.87934117 -8.85139636 -2.80022372 0 0 Z " fill="#A24A27" transform="translate(289,82)"/>
<path d="M0 0 C0.78375 0.04125 1.5675 0.0825 2.375 0.125 C3.35748524 4.1777516 3.45659574 7.96361737 3.375 12.125 C0.735 12.125 -1.905 12.125 -4.625 12.125 C-4.67895478 10.50036158 -4.71777195 8.87521459 -4.75 7.25 C-4.77320312 6.34507812 -4.79640625 5.44015625 -4.8203125 4.5078125 C-4.53030547 0.96972669 -3.50613188 0.16695866 0 0 Z " fill="#963914" transform="translate(126.625,148.875)"/>
<path d="M0 0 C-0.20874212 3.79102622 -0.84530023 4.86039289 -3.72265625 7.45703125 C-4.82582519 8.2563333 -5.93956952 9.04120718 -7.0625 9.8125 C-7.63033203 10.21919922 -8.19816406 10.62589844 -8.78320312 11.04492188 C-10.17988477 12.04255162 -11.58879991 13.02301533 -13 14 C-13.66 12.68 -14.32 11.36 -15 10 C-13.3970551 8.70681744 -11.79259858 7.41550844 -10.1875 6.125 C-9.29417969 5.40570313 -8.40085938 4.68640625 -7.48046875 3.9453125 C-2.4497992 0 -2.4497992 0 0 0 Z " fill="#9E4420" transform="translate(262,90)"/>
<path d="M0 0 C0.66 0.33 1.32 0.66 2 1 C1.67 1.33 1.34 1.66 1 2 C0.76712992 3.68183948 0.58735834 5.3712416 0.4375 7.0625 C0.31181641 8.44115234 0.31181641 8.44115234 0.18359375 9.84765625 C0.12300781 10.55792969 0.06242187 11.26820313 0 12 C-0.66 12 -1.32 12 -2 12 C-4.47346304 9.52653696 -4.98313144 8.29238832 -5.1875 4.75 C-5.125625 3.8425 -5.06375 2.935 -5 2 C-2.625 0.9375 -2.625 0.9375 0 0 Z " fill="#B54718" transform="translate(122,149)"/>
<path d="M0 0 C-2.24151882 2.24151882 -4.0067112 2.96301325 -6.9375 4.125 C-7.81277344 4.47820312 -8.68804687 4.83140625 -9.58984375 5.1953125 C-12 6 -12 6 -15 6 C-15 5.01 -15 4.02 -15 3 C-15.66 2.67 -16.32 2.34 -17 2 C-11.23918159 0.7017874 -5.91260345 -0.25706972 0 0 Z " fill="#A04722" transform="translate(212,109)"/>
<path d="M0 0 C1.65 0 3.3 0 5 0 C4.67 2.97 4.34 5.94 4 9 C2.68 8.67 1.36 8.34 0 8 C-2.70465742 8.86454438 -2.70465742 8.86454438 -5 10 C-3.77065985 6.31197956 -2.06140622 5.27643027 1 3 C0.67 2.01 0.34 1.02 0 0 Z " fill="#8F3714" transform="translate(164,140)"/>
<path d="M0 0 C0.66 0.99 1.32 1.98 2 3 C1.67 3.66 1.34 4.32 1 5 C0.29875 5.20625 -0.4025 5.4125 -1.125 5.625 C-4.83582169 7.39974081 -6.75992234 9.89040373 -9.3515625 13.02734375 C-10.82381029 14.78915687 -12.35054016 16.40552216 -14 18 C-14.66 17.67 -15.32 17.34 -16 17 C-15.25556641 16.27296875 -15.25556641 16.27296875 -14.49609375 15.53125 C-10.26188493 11.35328304 -6.22406871 7.07858568 -2.34765625 2.56640625 C-1.59150381 1.68751602 -0.81982149 0.81982149 0 0 Z " fill="#D15F2D" transform="translate(156,64)"/>
<path d="M0 0 C6.44541485 6.26637555 6.44541485 6.26637555 9 10 C8.67 10.99 8.34 11.98 8 13 C7.34 13 6.68 13 6 13 C4.99491199 11.21118264 3.99607264 9.41885304 3 7.625 C2.1646875 6.12839844 2.1646875 6.12839844 1.3125 4.6015625 C0 2 0 2 0 0 Z " fill="#A14824" transform="translate(82,49)"/>
<path d="M0 0 C-5.29230769 3.07692308 -5.29230769 3.07692308 -8.875 2.6875 C-9.57625 2.460625 -10.2775 2.23375 -11 2 C-7.00042393 -0.06874624 -4.43559483 -1.37656391 0 0 Z " fill="#AA5D3D" transform="translate(289,82)"/>
</svg>
